<?xml version="1.0" standalone="no"?>
<!DOCTYPE svg PUBLIC "-//W3C//DTD SVG 20010904//EN"
 "http://www.w3.org/TR/2001/REC-SVG-20010904/DTD/svg10.dtd">
<svg version="1.0" xmlns="http://www.w3.org/2000/svg"
 width="1024.000000pt" height="1024.000000pt" viewBox="0 0 1024.000000 1024.000000"
 preserveAspectRatio="xMidYMid meet">

<g transform="translate(0.000000,1024.000000) scale(0.100000,-0.100000)"
fill="#000000" stroke="none">
<path d="M4780 8529 c-522 -56 -1010 -218 -1435 -478 -610 -372 -1104 -960
-1368 -1626 -174 -440 -246 -887 -225 -1405 41 -1050 583 -2028 1453 -2622
490 -334 1055 -537 1644 -589 168 -14 521 -7 691 15 396 52 728 153 1075 326
223 111 347 188 530 325 433 324 760 715 1002 1200 183 364 293 739 338 1145
17 157 20 529 5 681 -27 266 -102 597 -190 835 -65 175 -216 484 -310 634
-499 792 -1263 1319 -2185 1505 -227 46 -345 57 -645 60 -162 2 -333 -1 -380
-6z m765 -407 c447 -69 834 -212 1198 -443 111 -71 289 -202 322 -239 19 -21
18 -22 -429 -469 l-449 -449 -48 73 c-109 162 -305 295 -553 374 -54 17 -131
37 -171 43 l-72 11 -6 169 c-7 177 -13 203 -59 245 -36 33 -72 43 -161 43 -98
0 -152 -21 -188 -71 -23 -33 -24 -40 -24 -207 0 -145 -2 -173 -15 -176 -8 -3
-37 -7 -65 -11 -76 -10 -232 -51 -303 -80 -289 -118 -505 -382 -569 -695 -21
-103 -20 -322 2 -425 32 -154 115 -308 216 -401 105 -96 274 -187 484 -259 61
-21 112 -40 114 -41 2 -2 -119 -127 -269 -279 l-273 -275 -141 0 c-159 0 -190
-10 -223 -72 -20 -39 -20 -133 1 -221 l13 -57 -494 -488 c-272 -268 -498 -488
-503 -490 -4 -2 -43 41 -85 95 -327 413 -536 894 -616 1413 -27 175 -37 547
-19 727 81 851 489 1580 1172 2093 405 306 926 513 1428 569 52 6 111 13 130
15 19 2 145 3 280 1 183 -2 278 -8 375 -23z m1959 -1157 c265 -348 449 -758
536 -1195 50 -248 55 -307 54 -595 0 -228 -4 -293 -23 -415 -52 -337 -142
-625 -285 -910 -228 -454 -562 -838 -976 -1122 -970 -665 -2214 -702 -3228
-95 -92 55 -293 200 -377 271 l-30 25 441 441 441 442 59 -62 c68 -72 189
-155 296 -205 127 -58 224 -86 464 -131 21 -4 22 -9 25 -172 4 -163 5 -170 31
-209 39 -59 77 -73 196 -73 86 0 103 3 132 23 71 48 74 60 80 255 l5 176 80
13 c488 82 820 362 937 791 29 105 32 364 5 461 -23 86 -58 170 -98 238 -43
72 -166 197 -244 248 -83 55 -235 128 -332 162 -46 15 -82 31 -80 35 1 3 397
403 881 888 l878 882 24 -28 c14 -16 62 -78 108 -139z m-2289 -375 c214 -20
365 -80 476 -190 60 -60 114 -146 133 -215 5 -17 -59 -85 -332 -358 l-338
-337 -93 26 c-153 42 -333 108 -407 149 -159 89 -234 215 -234 395 0 295 221
498 575 530 44 4 87 8 95 9 8 0 65 -4 125 -9z m133 -1635 c132 -36 244 -79
317 -120 195 -108 277 -274 241 -482 -21 -122 -64 -204 -155 -293 -129 -128
-303 -200 -528 -220 -310 -27 -596 53 -760 214 -40 39 -73 78 -73 85 0 23 832
852 850 847 8 -3 57 -17 108 -31z"/>
</g>
</svg>
