<?xml version="1.0" standalone="no"?>
<!DOCTYPE svg PUBLIC "-//W3C//DTD SVG 20010904//EN"
 "http://www.w3.org/TR/2001/REC-SVG-20010904/DTD/svg10.dtd">
<svg version="1.0" xmlns="http://www.w3.org/2000/svg"
 width="1024.000000pt" height="1024.000000pt" viewBox="0 0 1024.000000 1024.000000"
 preserveAspectRatio="xMidYMid meet">

<g transform="translate(0.000000,1024.000000) scale(0.100000,-0.100000)"
fill="#000000" stroke="none">
<path d="M4784 8625 c-230 -50 -412 -211 -495 -437 -10 -28 -23 -55 -29 -58
-6 -4 -75 -10 -153 -13 -144 -7 -172 -10 -240 -28 -71 -19 -146 -75 -193 -146
l-35 -53 -297 0 c-342 0 -429 -12 -555 -75 -198 -97 -354 -306 -385 -515 -9
-59 -9 -4810 0 -4875 39 -284 276 -532 564 -590 71 -14 294 -15 2189 -13 1161
2 2119 6 2130 10 11 3 49 16 85 27 228 71 424 295 471 535 5 31 9 986 9 2476
0 2417 0 2426 -21 2500 -52 189 -181 348 -354 435 -150 75 -166 78 -542 83
l-333 4 -38 53 c-85 120 -160 153 -382 167 -85 5 -166 12 -180 16 -18 6 -30
23 -50 73 -73 190 -222 339 -398 398 -35 12 -107 26 -160 31 -146 14 -535 11
-608 -5z m692 -400 c74 -38 106 -87 139 -214 26 -104 60 -167 112 -210 66 -54
108 -63 323 -68 109 -3 201 -10 208 -15 9 -8 12 -76 12 -277 l0 -268 -26 -24
-26 -24 -1093 -3 -1093 -2 -31 26 -31 26 0 268 c0 202 3 270 13 278 6 5 98 12
207 15 215 5 257 14 324 69 54 44 83 96 110 196 31 113 48 151 83 186 64 65
126 74 464 72 l245 -2 60 -29z m-1895 -925 c7 -200 11 -227 57 -316 33 -64
109 -141 177 -179 120 -67 92 -66 1341 -63 l1119 3 68 27 c126 51 217 132 268
242 39 83 49 150 49 328 0 147 0 148 24 154 13 3 142 4 287 2 l264 -3 57 -28
c64 -32 115 -87 150 -163 l23 -49 0 -2400 0 -2400 -26 -55 c-36 -77 -77 -121
-151 -161 l-63 -34 -2105 0 -2105 0 -64 35 c-78 42 -134 109 -158 188 -17 54
-18 197 -18 2437 0 2272 1 2382 18 2427 34 88 93 146 186 184 54 23 63 24 326
21 l270 -2 6 -195z"/>
<path d="M3544 5916 c-149 -65 -150 -271 -2 -347 36 -18 83 -19 1578 -19 1674
0 1578 -3 1639 53 32 30 61 94 61 137 0 70 -59 155 -123 179 -20 8 -506 11
-1575 11 -1273 -1 -1552 -3 -1578 -14z"/>
<path d="M3525 4751 c-78 -35 -124 -120 -110 -203 8 -48 58 -115 105 -139 33
-18 95 -19 1589 -19 l1555 0 44 21 c66 32 97 86 97 169 0 58 -4 72 -30 110
-60 87 91 80 -1660 80 -1482 0 -1552 -1 -1590 -19z"/>
<path d="M3532 3579 c-66 -33 -97 -87 -97 -168 0 -78 20 -118 79 -159 l39 -27
1557 -3 1557 -2 44 23 c63 34 103 111 96 186 -7 67 -44 123 -101 151 -42 20
-54 20 -1587 20 l-1544 0 -43 -21z"/>
</g>
</svg>
